<svg xmlns="http://www.w3.org/2000/svg" viewBox="17.33 16.74 682.81 127.81" fill="currentColor" aria-label="BRUTO">
<g transform="matrix(1,0,0,-1,0,405.0)">
  <path d="M70.2657 347.872C74.1157 347.494 77.1027 346.805 79.0947 345.851 82.3687 343.907 84.1717 341.617 84.1717 339.399 84.1717 337.055 82.8497 335.253 80.2557 334.05 78.2237 333.174 75.9157 332.482 73.3947 331.989 70.8597 331.489 66.7767 331.208 61.2627 331.15H35.7127V348.451M35.7127 315.486H61.2197C68.0597 315.486 74.4437 314.968 80.1917 313.948 83.7777 313.308 88.0527 311.539 88.0527 306.743V305.971C88.0527 303.139 85.3257 296.552 60.0777 296.552H35.7127ZM133.2427 325.603C136.8777 329.833 138.7157 334.255 138.7157 338.775 138.7157 353.06 132.1587 364.787 119.1977 373.655 113.7277 377.206 107.9907 379.652 102.1447 380.922 96.3827 382.176 88.5767 382.812 78.9377 382.812H19.3297V263.921C19.3297 263.921 83.8077 263.757 86.1907 263.757 126.6197 263.757 147.1207 277.99 147.1207 306.063 147.1207 315.672 142.4547 322.235 133.2427 325.603"/>  <!-- B -->
  <path d="M223.1183 341.068C223.1183 326.741 211.5043 315.126 197.1763 315.126 182.8493 315.126 171.2353 326.741 171.2353 341.068 171.2353 355.395 182.8493 367.01 197.1763 367.01 211.5043 367.01 223.1183 355.395 223.1183 341.068M283.6013 280.685C283.6373 283.269 283.3383 287.99 280.7393 293.02 276.3203 301.577 262.6873 304.834 260.5133 305.652 272.2813 312.346 278.2433 323.361 278.2433 338.446V340.505C278.2433 368.578 257.7453 382.813 217.3193 382.813 214.9303 382.813 155.7313 382.647 155.7313 382.647V263.757H171.2943V296.057C173.0843 296.057 173.0453 296.004 177.4583 296.057 185.5463 296.057 185.9313 295.725 193.8413 294.914 199.7373 294.235 204.8543 292.301 209.0503 289.165 213.1083 286.135 215.0813 281.692 215.0813 275.578V263.757H283.6013Z"/>  <!-- R -->
  <path d="M351.1961 316.4468C350.4751 314.6688 347.3301 307.5048 339.4051 304.0018 329.4811 299.6158 320.2371 304.5868 318.6621 305.4338 312.2501 308.8818 309.1121 314.1938 307.9461 316.4468V383.8008H292.2141V316.4468C292.2141 301.6368 297.2841 288.8298 307.2831 278.3838 317.3031 267.9118 333.7301 262.6028 356.1071 262.6028 378.5401 262.6028 394.9921 267.9118 405.0131 278.3838 415.0141 288.8348 420.0871 301.6398 420.0871 316.4468V383.8008H351.1961Z"/>  <!-- U -->
  <path d="M559.7502 382.6471H431.6742V308.7471H487.7812V263.7571H503.5142V308.7471H559.7502Z"/>  <!-- T -->
  <path d="M667.4336 300.3578C679.9356 303.3528 686.1886 311.3518 686.1886 324.3568 686.1886 337.3598 679.9356 345.3588 667.4336 348.3558 654.9316 351.3518 643.8806 352.8508 634.2796 352.8508 624.6266 352.8508 613.5346 351.3518 601.0066 348.3558 588.4776 345.3588 582.2126 337.3598 582.2126 324.3568 582.2126 311.3518 588.4776 303.3528 601.0066 300.3578 613.5346 297.3598 624.6266 295.8628 634.2796 295.8628 643.8806 295.8628 654.9316 297.3598 667.4336 300.3578M586.4086 278.1818C575.6976 288.6668 570.3446 301.3458 570.3446 316.2148V332.4978C570.3446 347.3658 575.6976 360.0428 586.4086 370.5318 597.1176 381.0188 613.0736 386.2618 634.2796 386.2618 655.3816 386.2618 671.2996 381.0188 682.0336 370.5318 692.7686 360.0428 698.1356 347.3658 698.1356 332.4978V316.2148C698.1356 301.3458 692.7686 288.6668 682.0336 278.1818 671.2996 267.6928 655.3816 262.4498 634.2796 262.4498 613.0736 262.4498 597.1176 267.6928 586.4086 278.1818"/>  <!-- O -->
</g>
</svg>
