<svg xmlns="http://www.w3.org/2000/svg" viewBox="312.22 161.06 84.17 88.02" fill="currentColor" aria-label="olives">
<g transform="matrix(1,0,0,-1,0,405.0)">
  <path d="M349.3526 213.1434C352.1156 214.2174 354.9656 214.2044 357.9016 213.1044L361.1166 211.9004C364.0526 210.8004 366.2096 208.9384 367.5876 206.3134 368.9656 203.6884 368.9696 200.5464 367.5976 196.8844 366.2326 193.2404 364.1686 190.8804 361.4036 189.8024 358.6376 188.7244 355.7876 188.7354 352.8516 189.8344L349.6366 191.0384C346.7006 192.1384 344.5446 194.0034 343.1686 196.6324 341.7916 199.2614 341.7856 202.3974 343.1506 206.0414 344.5216 209.7024 346.5886 212.0704 349.3526 213.1434"/>
  <path d="M377.0728 228.8137C377.6488 232.0087 376.5198 234.2027 373.6858 235.3957 370.8518 236.5877 368.4938 235.8607 366.6118 233.2157 364.7298 230.5697 363.3178 228.1267 362.3738 225.8837 361.4248 223.6287 360.6618 220.9007 360.0838 217.6997 359.5048 214.4987 360.6328 212.3017 363.4668 211.1097 366.3008 209.9167 368.6598 210.6467 370.5438 213.2977 372.4288 215.9497 373.8448 218.4027 374.7938 220.6577 375.7378 222.8997 376.4978 225.6187 377.0728 228.8137M373.9428 207.8547C370.6048 206.3147 367.3148 206.2267 364.0748 207.5907L360.5258 209.0837C357.2858 210.4467 355.0488 212.8597 353.8158 216.3237 352.5828 219.7867 353.0078 223.9947 355.0918 228.9477 357.1658 233.8767 359.8728 237.1137 363.2138 238.6597 366.5548 240.2047 369.8448 240.2957 373.0858 238.9327L376.6348 237.4387C379.8748 236.0757 382.1108 233.6587 383.3408 230.1907 384.5718 226.7207 384.1498 222.5217 382.0758 217.5937 379.9918 212.6397 377.2808 209.3937 373.9428 207.8547"/>
  <path d="M386.8939 200.9217C387.4699 204.1167 386.3409 206.3107 383.5069 207.5037 380.6729 208.6957 378.3149 207.9687 376.4329 205.3237 374.5509 202.6777 373.1389 200.2347 372.1949 197.9917 371.2459 195.7367 370.4829 193.0087 369.9049 189.8077 369.3259 186.6067 370.4539 184.4097 373.2879 183.2177 376.1219 182.0247 378.4809 182.7547 380.3649 185.4057 382.2499 188.0577 383.6659 190.5107 384.6149 192.7657 385.5589 195.0077 386.3189 197.7267 386.8939 200.9217M383.7639 179.9627C380.4259 178.4227 377.1359 178.3347 373.8959 179.6987L370.3469 181.1917C367.1069 182.5547 364.8699 184.9677 363.6369 188.4317 362.4039 191.8947 362.8289 196.1027 364.9129 201.0557 366.9869 205.9847 369.6939 209.2217 373.0349 210.7677 376.3759 212.3127 379.6659 212.4037 382.9069 211.0407L386.4559 209.5467C389.6959 208.1837 391.9319 205.7667 393.1619 202.2987 394.3929 198.8287 393.9709 194.6297 391.8969 189.7017 389.8129 184.7477 387.1019 181.5017 383.7639 179.9627"/>
  <path d="M369.7872 180.5025C370.3632 183.6975 369.2342 185.8915 366.4002 187.0845 363.5662 188.2765 361.2082 187.5495 359.3262 184.9045 357.4442 182.2585 356.0322 179.8155 355.0882 177.5725 354.1392 175.3175 353.3762 172.5895 352.7982 169.3885 352.2192 166.1875 353.3472 163.9905 356.1812 162.7985 359.0152 161.6055 361.3742 162.3355 363.2582 164.9865 365.1432 167.6385 366.5592 170.0915 367.5082 172.3465 368.4522 174.5885 369.2122 177.3075 369.7872 180.5025M366.6572 159.5435C363.3192 158.0035 360.0292 157.9155 356.7892 159.2795L353.2402 160.7725C350.0002 162.1355 347.7632 164.5485 346.5302 168.0125 345.2972 171.4755 345.7222 175.6835 347.8062 180.6365 349.8802 185.5655 352.5872 188.8025 355.9282 190.3485 359.2692 191.8935 362.5592 191.9845 365.8002 190.6215L369.3492 189.1275C372.5892 187.7645 374.8252 185.3475 376.0552 181.8795 377.2862 178.4095 376.8642 174.2105 374.7902 169.2825 372.7062 164.3285 369.9952 161.0825 366.6572 159.5435"/>
  <path d="M349.0501 185.8886C349.6261 189.0836 348.4971 191.2776 345.6631 192.4706 342.8291 193.6626 340.4711 192.9356 338.5891 190.2906 336.7071 187.6446 335.2951 185.2016 334.3511 182.9586 333.4021 180.7036 332.6391 177.9756 332.0611 174.7746 331.4821 171.5736 332.6101 169.3766 335.4441 168.1846 338.2781 166.9916 340.6371 167.7216 342.5211 170.3726 344.4061 173.0246 345.8221 175.4776 346.7711 177.7326 347.7151 179.9746 348.4751 182.6936 349.0501 185.8886M345.9201 164.9296C342.5821 163.3896 339.2921 163.3016 336.0521 164.6656L332.5031 166.1586C329.2631 167.5216 327.0261 169.9346 325.7931 173.3986 324.5601 176.8616 324.9851 181.0696 327.0691 186.0226 329.1431 190.9516 331.8501 194.1886 335.1911 195.7346 338.5321 197.2796 341.8221 197.3706 345.0631 196.0076L348.6121 194.5136C351.8521 193.1506 354.0881 190.7336 355.3181 187.2656 356.5491 183.7956 356.1271 179.5966 354.0531 174.6686 351.9691 169.7146 349.2581 166.4686 345.9201 164.9296"/>
  <path d="M338.7084 208.1929C339.2844 211.3879 338.1554 213.5819 335.3214 214.7749 332.4874 215.9669 330.1294 215.2399 328.2474 212.5949 326.3654 209.9489 324.9534 207.5059 324.0094 205.2629 323.0604 203.0079 322.2974 200.2799 321.7194 197.0789 321.1404 193.8779 322.2684 191.6809 325.1024 190.4889 327.9364 189.2959 330.2954 190.0259 332.1794 192.6769 334.0644 195.3289 335.4804 197.7819 336.4294 200.0369 337.3734 202.2789 338.1334 204.9979 338.7084 208.1929M335.5784 187.2339C332.2404 185.6939 328.9504 185.6059 325.7104 186.9699L322.1614 188.4629C318.9214 189.8259 316.6844 192.2389 315.4514 195.7029 314.2184 199.1659 314.6434 203.3739 316.7274 208.3269 318.8014 213.2559 321.5084 216.4929 324.8494 218.0389 328.1904 219.5839 331.4804 219.6749 334.7214 218.3119L338.2704 216.8179C341.5104 215.4549 343.7464 213.0379 344.9764 209.5699 346.2074 206.0999 345.7854 201.9009 343.7114 196.9729 341.6274 192.0189 338.9164 188.7729 335.5784 187.2339"/>
  <path d="M352.9806 230.4536C353.5566 233.6486 352.4276 235.8426 349.5936 237.0356 346.7596 238.2276 344.4016 237.5006 342.5196 234.8556 340.6376 232.2096 339.2256 229.7666 338.2816 227.5236 337.3326 225.2686 336.5696 222.5406 335.9916 219.3396 335.4126 216.1386 336.5406 213.9416 339.3746 212.7496 342.2086 211.5566 344.5676 212.2866 346.4516 214.9376 348.3366 217.5896 349.7526 220.0426 350.7016 222.2976 351.6456 224.5396 352.4056 227.2586 352.9806 230.4536M349.8506 209.4946C346.5126 207.9546 343.2226 207.8666 339.9826 209.2306L336.4336 210.7236C333.1936 212.0866 330.9566 214.4996 329.7236 217.9636 328.4906 221.4266 328.9156 225.6346 330.9996 230.5876 333.0736 235.5166 335.7806 238.7536 339.1216 240.2996 342.4626 241.8446 345.7526 241.9356 348.9936 240.5726L352.5426 239.0786C355.7826 237.7156 358.0186 235.2986 359.2486 231.8306 360.4796 228.3606 360.0576 224.1616 357.9836 219.2336 355.8996 214.2796 353.1886 211.0336 349.8506 209.4946"/>
</g>
</svg>
