<svg xmlns="http://www.w3.org/2000/svg" viewBox="539.02 164.07 44.22 89.15" fill="currentColor" aria-label="fork">
<g transform="matrix(1,0,0,-1,0,405.0)">
  <path d="M581.1906 173.8902C581.2286 174.7342 581.2466 175.5592 581.2466 176.3652 581.2466 188.3832 577.5216 195.1862 570.1666 196.6482V238.9282H552.6326V193.7372C549.2606 192.9402 546.4066 190.8622 544.1176 187.5162 542.9176 185.6682 542.0916 183.7302 541.6626 181.7552 541.2386 179.8082 541.0236 177.1712 541.0236 173.9142V153.7752H552.6326L552.8286 170.9842C552.9556 172.2852 553.1886 173.2942 553.5106 173.9672 554.1676 175.0732 554.9416 175.6832 555.6906 175.6832 556.4826 175.6832 557.0916 175.2362 557.4976 174.3602 557.7936 173.6732 558.0276 172.8932 558.1946 172.0422 558.3636 171.1852 558.4586 169.8062 558.4776 167.9432V153.7752H563.7696V167.9282C563.7696 170.2392 563.9446 172.3962 564.2896 174.3382 564.5056 175.5492 565.1036 176.9942 566.7236 176.9942H566.9846C567.9416 176.9942 570.1666 176.0732 570.1666 167.5422V153.7752H581.1916Z"/>
</g>
</svg>
