<svg xmlns="http://www.w3.org/2000/svg" viewBox="399.15 163.85 77.23 88.78" fill="currentColor" aria-label="notes">
<g transform="matrix(1,0,0,-1,0,405.0)">
  <path d="M451.7319 204.1503C449.6779 203.3123 447.8319 202.7543 446.1919 202.4773 444.5439 202.1983 442.6099 202.1173 440.3899 202.2333 438.1699 202.3493 436.8849 203.4423 436.5349 205.5143 436.1849 207.5863 437.0389 209.0413 439.0969 209.8803 441.1559 210.7193 443.0089 211.2783 444.6579 211.5563 446.2969 211.8333 448.2239 211.9143 450.4399 211.7973 452.6549 211.6803 453.9379 210.5863 454.2879 208.5153 454.6379 206.4433 453.7859 204.9883 451.7319 204.1503M416.3779 207.2613C418.0179 207.5383 419.9449 207.6183 422.1599 207.5023 424.3759 207.3853 425.6589 206.2913 426.0089 204.2203 426.3589 202.1483 425.5069 200.6933 423.4529 199.8553 421.3989 199.0163 419.5519 198.4593 417.9129 198.1823 416.2649 197.9033 414.3309 197.8223 412.1109 197.9383 409.8909 198.0543 408.6059 199.1473 408.2559 201.2193 407.9049 203.2913 408.7599 204.7463 410.8179 205.5853 412.8769 206.4243 414.7299 206.9833 416.3779 207.2613M456.1089 210.1573C455.7089 212.5253 454.4509 214.3903 452.3349 215.7513 450.2199 217.1123 447.3609 217.4883 443.7579 216.8793 440.8799 216.3933 438.6689 215.4673 437.1019 214.1173L436.0519 221.0253C435.1349 227.0663 434.2169 233.1083 433.2999 239.1493L432.5589 239.0363 401.8899 234.3783 401.1489 234.2663C402.0669 228.2253 402.9849 222.1833 403.9019 216.1423L405.9599 202.5923C405.9769 202.4523 405.9859 202.3153 406.0099 202.1743L406.4479 199.5793C406.8489 197.2103 408.1039 195.3453 410.2149 193.9843 412.3259 192.6223 415.1919 192.2473 418.8129 192.8593 422.4159 193.4683 424.9919 194.7623 426.5429 196.7433 428.0929 198.7233 428.6689 200.8983 428.2679 203.2673L427.8299 205.8623C427.4289 208.2303 426.1709 210.0953 424.0559 211.4563 421.9409 212.8173 419.0819 213.1933 415.4789 212.5843 412.5939 212.0973 410.3789 211.1673 408.8109 209.8113L407.7599 216.7283 432.1939 220.4393 434.1919 207.2833C434.2119 207.0143 434.2429 206.7433 434.2889 206.4693L434.7279 203.8753C435.1279 201.5063 436.3829 199.6403 438.4949 198.2793 440.6049 196.9173 443.4709 196.5423 447.0919 197.1543 450.6949 197.7633 453.2719 199.0573 454.8219 201.0383 456.3729 203.0193 456.9479 205.1933 456.5469 207.5623Z"/>
  <path d="M468.7449 160.4044C466.5609 160.0124 464.6389 159.8524 462.9779 159.9234 461.3079 159.9944 459.3989 160.3174 457.2519 160.8934 455.1049 161.4694 454.0769 162.8064 454.1659 164.9064 454.2549 167.0054 455.3939 168.2504 457.5819 168.6424 459.7699 169.0334 461.6999 169.1934 463.3699 169.1224 465.0309 169.0514 466.9319 168.7284 469.0749 168.1524 471.2169 167.5774 472.2439 166.2394 472.1549 164.1404 472.0649 162.0414 470.9289 160.7954 468.7449 160.4044M434.8159 170.8164C436.4769 170.7454 438.3789 170.4224 440.5209 169.8464 442.6639 169.2704 443.6909 167.9334 443.6009 165.8344 443.5119 163.7344 442.3749 162.4894 440.1919 162.0974 438.0079 161.7064 436.0859 161.5454 434.4249 161.6164 432.7549 161.6874 430.8459 162.0104 428.6989 162.5874 426.5519 163.1624 425.5229 164.5004 425.6119 166.5994 425.7019 168.6984 426.8409 169.9444 429.0289 170.3354 431.2169 170.7274 433.1459 170.8874 434.8159 170.8164M474.2779 165.3664C474.3799 167.7674 473.5379 169.8534 471.7529 171.6254 469.9679 173.3974 467.2499 174.3614 463.5989 174.5164 460.6829 174.6404 458.3269 174.1954 456.5129 173.2014L456.9269 180.1774C457.2889 186.2764 457.6499 192.3764 458.0119 198.4764L457.2649 198.5204 426.2979 200.3574 425.5499 200.4014C425.1889 194.3024 424.8269 188.2024 424.4649 182.1024L423.6539 168.4204C423.6409 168.2804 423.6209 168.1444 423.6149 168.0014L423.5029 165.3724C423.4009 162.9724 424.2399 160.8864 426.0209 159.1144 427.8019 157.3424 430.5259 156.3784 434.1949 156.2224 437.8459 156.0674 440.6359 156.7964 442.5649 158.4104 444.4949 160.0244 445.5099 162.0314 445.6119 164.4314L445.7239 167.0604C445.8259 169.4604 444.9849 171.5464 443.1999 173.3184 441.4149 175.0904 438.6969 176.0544 435.0459 176.2094 432.1219 176.3344 429.7619 175.8874 427.9459 174.8874L428.3609 181.8714 453.0309 180.4084 452.2439 167.1244C452.2069 166.8574 452.1799 166.5854 452.1679 166.3074L452.0569 163.6794C451.9539 161.2784 452.7929 159.1924 454.5739 157.4214 456.3549 155.6494 459.0799 154.6854 462.7489 154.5294 466.3989 154.3734 469.1889 155.1024 471.1189 156.7174 473.0479 158.3304 474.0639 160.3374 474.1659 162.7384Z"/>
</g>
</svg>
