<svg xmlns="http://www.w3.org/2000/svg" viewBox="586.54 156.20 73.71 91.62" fill="currentColor" aria-label="vinyl">
<g transform="matrix(1,0,0,-1,0,405.0)">
  <path d="M639.4956 178.4911C637.8856 178.2031 636.0966 178.0561 634.1796 178.0541L623.3966 178.0461 612.6126 178.0541C610.6966 178.0561 608.9076 178.2031 607.2976 178.4911 606.2926 178.6721 605.0956 179.1691 605.0966 180.5121L605.0976 180.7291C605.0976 181.5221 605.8646 183.3671 612.9386 183.3591L622.4366 183.3521V183.3511L623.3966 183.3521 624.3566 183.3511V183.3521L633.8536 183.3591C640.9286 183.3671 641.6946 181.5221 641.6956 180.7291V180.5121C641.6976 179.1691 640.5006 178.6721 639.4956 178.4911M639.1986 169.5521C638.6406 169.2841 637.8036 169.0901 636.7256 168.9821L623.3966 168.8211 610.0676 168.9821C608.9886 169.0901 608.1526 169.2841 607.5946 169.5521 606.6776 170.0971 606.1726 170.7401 606.1736 171.3611 606.1746 172.0181 606.5456 172.5221 607.2726 172.8591 607.8426 173.1031 608.4896 173.2971 609.1956 173.4341 609.9066 173.5731 611.0506 173.6511 612.5956 173.6651L622.4476 173.6581V173.6571H623.3966 624.3456V173.6581L634.1976 173.6651C635.7426 173.6511 636.8866 173.5731 637.5966 173.4341 638.3036 173.2971 638.9506 173.1031 639.5206 172.8591 640.2466 172.5221 640.6186 172.0181 640.6186 171.3611 640.6196 170.7401 640.1156 170.0971 639.1986 169.5521M607.2976 198.3791C608.9076 198.6661 610.6966 198.8131 612.6126 198.8151L623.1736 198.8231 633.7336 198.8151C635.6506 198.8131 637.4386 198.6661 639.0496 198.3791 640.0546 198.1981 641.2516 197.7011 641.2496 196.3571V196.1411C641.2486 195.3471 640.4826 193.5031 633.4076 193.5111L624.3566 193.5171V193.5191L623.1736 193.5181 621.9906 193.5191V193.5171L612.9386 193.5111C605.8646 193.5031 605.0976 195.3471 605.0976 196.1411L605.0966 196.3571C605.0956 197.7011 606.2926 198.1981 607.2976 198.3791M607.5946 207.3181C608.1526 207.5861 608.9886 207.7801 610.0676 207.8871L623.1736 208.0461 636.2786 207.8871C637.3576 207.7801 638.1946 207.5861 638.7526 207.3181 639.6696 206.7721 640.1736 206.1301 640.1726 205.5091 640.1716 204.8521 639.8006 204.3471 639.0736 204.0111 638.5046 203.7661 637.8576 203.5731 637.1506 203.4361 636.4406 203.2971 635.2966 203.2191 633.7506 203.2051L624.3456 203.2111V203.2131L623.1736 203.2121 622.0016 203.2131V203.2111L612.5956 203.2051C611.0506 203.2191 609.9066 203.2971 609.1956 203.4361 608.4896 203.5731 607.8426 203.7661 607.2726 204.0111 606.5456 204.3471 606.1746 204.8521 606.1736 205.5091 606.1726 206.1301 606.6776 206.7721 607.5946 207.3181M611.1656 226.1371C608.8236 225.7411 607.2296 226.5821 606.3816 228.6611 605.5346 230.7401 606.0866 232.4561 608.0376 233.8101 608.5656 234.1761 609.0806 234.5131 609.5866 234.8301L613.9746 226.7281C613.0976 226.5071 612.1696 226.3071 611.1656 226.1371M619.4186 238.4501C621.7566 238.8441 623.3486 238.0021 624.1966 235.9241 625.0436 233.8451 624.4936 232.1291 622.5476 230.7771 621.3366 229.9361 620.1926 229.2431 619.0986 228.6661L614.4616 237.2261C615.8936 237.7221 617.5386 238.1331 619.4186 238.4501M658.2466 180.7221C658.2426 184.0811 657.1826 186.7261 655.0966 188.6601 656.8826 190.5481 657.7966 193.0401 657.8006 196.1481 657.8036 198.8401 656.4986 200.6801 653.9176 201.6271 654.9376 202.8111 655.4546 204.0501 655.4556 205.3161 655.4606 209.3191 653.6266 212.6071 649.9986 215.0961 648.4666 216.0931 646.8596 216.7801 645.2226 217.1371 643.6086 217.4911 641.4206 217.6711 638.7206 217.6741L625.0436 217.6901 621.8386 223.6081C624.0776 224.8891 625.6296 226.4371 626.4936 228.2511 627.6496 230.6771 627.7436 233.0791 626.7746 235.4561L625.7126 238.0601C624.7436 240.4361 622.9976 242.0881 620.4746 243.0151 618.0516 243.9061 615.1186 243.6761 611.6866 242.3511L609.2776 246.7991H603.1036L606.9226 239.7481C605.6426 238.7381 604.6926 237.6031 604.0916 236.3361 602.9396 233.9111 602.8486 231.5101 603.8176 229.1341L604.8786 226.5301C605.8486 224.1531 607.5916 222.5001 610.1106 221.5721 612.0156 220.8691 614.2416 220.8591 616.7866 221.5371L618.8716 217.6871 607.6266 217.6741C604.9256 217.6711 602.7386 217.4911 601.1246 217.1371 599.4866 216.7801 597.8806 216.0931 596.3486 215.0961 592.7196 212.6071 590.8866 209.3191 590.8906 205.3161 590.8926 204.0501 591.4086 202.8111 592.4286 201.6271 589.8486 200.6801 588.5436 198.8401 588.5466 196.1481 588.5506 192.9141 589.5406 190.3481 591.4726 188.4351 589.5406 186.5221 588.5506 183.9561 588.5466 180.7221 588.5436 178.0301 589.8486 176.1891 592.4286 175.2421 591.4086 174.0581 590.8926 172.8201 590.8906 171.5531 590.8866 167.5511 592.7196 164.2631 596.3486 161.7741 597.8806 160.7771 599.4866 160.0901 601.1246 159.7321 602.7386 159.3791 604.9256 159.1981 607.6266 159.1951L622.4646 159.1781V159.1761L623.3966 159.1771 624.3286 159.1761V159.1781L639.1666 159.1951C641.8676 159.1981 644.0546 159.3791 645.6686 159.7321 647.3056 160.0901 648.9126 160.7771 650.4446 161.7741 654.0726 164.2631 655.9066 167.5511 655.9016 171.5531 655.9006 172.8201 655.3836 174.0581 654.3636 175.2421 656.9446 176.1891 658.2496 178.0301 658.2466 180.7221"/>
</g>
</svg>
