<svg xmlns="http://www.w3.org/2000/svg" viewBox="0 0 180 180" aria-label="BRUTO">
  <rect width="180" height="180" fill="#E6FF7B"/>
  <g transform="translate(6.67 8.31)">
    <g transform="matrix(1,0,0,-1,0,405)">
      <path fill="#000" d="M70.2657 347.872C74.1157 347.494 77.1027 346.805 79.0947 345.851 82.3687 343.907 84.1717 341.617 84.1717 339.399 84.1717 337.055 82.8497 335.253 80.2557 334.05 78.2237 333.174 75.9157 332.482 73.3947 331.989 70.8597 331.489 66.7767 331.208 61.2627 331.15H35.7127V348.451M35.7127 315.486H61.2197C68.0597 315.486 74.4437 314.968 80.1917 313.948 83.7777 313.308 88.0527 311.539 88.0527 306.743V305.971C88.0527 303.139 85.3257 296.552 60.0777 296.552H35.7127ZM133.2427 325.603C136.8777 329.833 138.7157 334.255 138.7157 338.775 138.7157 353.06 132.1587 364.787 119.1977 373.655 113.7277 377.206 107.9907 379.652 102.1447 380.922 96.3827 382.176 88.5767 382.812 78.9377 382.812H19.3297V263.921C19.3297 263.921 83.8077 263.757 86.1907 263.757 126.6197 263.757 147.1207 277.99 147.1207 306.063 147.1207 315.672 142.4547 322.235 133.2427 325.603"/>
    </g>
  </g>
</svg>
